<svg width="335" height="80" viewBox="0 0 335 80" fill="none" xmlns="http://www.w3.org/2000/svg">
<path d="M91.122 43.6397C91.2305 45.4853 91.2656 47.3276 91.2273 49.1668C91.0136 49.6609 90.7903 50.1549 90.5605 50.6458C90.0788 51.6785 89.5747 52.6954 89.0483 53.6962C87.7052 51.4777 86.2376 49.3326 84.6456 47.2671C81.1075 42.6644 76.9696 38.4633 72.2829 34.8009C69.7497 32.8151 67.0539 30.9886 64.2049 29.3439C62.1567 28.155 60.0319 27.0585 57.8305 26.064C55.6292 25.0695 53.4023 24.1961 51.1562 23.4407C54.1999 22.1848 57.2945 21.1616 60.4147 20.3616C66.1797 18.8762 72.0309 18.1527 77.8405 18.1495C80.1854 18.1463 82.5208 18.261 84.8402 18.4937C88.5761 26.6441 90.6243 35.161 91.122 43.6397Z" fill="url(#paint0_linear_586_527)"/>
<path d="M84.645 47.2669C86.237 49.3324 87.7046 51.4776 89.0478 53.6961C84.9768 61.4416 79.6362 68.1353 73.4054 73.6401C72.1484 74.7525 70.8531 75.8172 69.5259 76.8308C69.0058 76.9678 68.4858 77.0985 67.9594 77.226C66.3323 77.6181 64.702 77.9528 63.0781 78.2269C64.0927 75.6737 64.9604 73.0568 65.6719 70.3889C67.1714 64.7821 67.9881 58.9458 68.0455 53.0012C68.0774 49.7818 67.886 46.5338 67.4617 43.273C67.1586 40.927 66.7311 38.5747 66.1824 36.2223C65.6336 33.8732 64.9732 31.5782 64.2043 29.3438C67.0533 30.9885 69.7492 32.8149 72.2824 34.8007C76.969 38.4631 81.1069 42.6642 84.645 47.2669Z" fill="url(#paint1_linear_586_527)"/>
<path d="M83.8486 16.4186C84.1931 17.1071 84.5218 17.7988 84.8408 18.4937C82.5214 18.261 80.186 18.1462 77.8411 18.1494C72.0314 18.1526 66.1803 18.8762 60.4153 20.3615C57.2951 21.1616 54.2005 22.1848 51.1568 23.4406C48.9682 24.3395 46.8084 25.3595 44.6772 26.4974C42.8778 27.46 41.1391 28.4864 39.4609 29.5797C40.6031 26.711 41.9175 23.9506 43.3915 21.3146C46.0235 16.6003 49.1597 12.2653 52.7074 8.36706C54.7683 6.09757 56.9665 3.97472 59.2891 2.01123C66.4164 4.24884 72.9694 7.5415 78.8142 11.682C80.2913 12.7243 81.7238 13.824 83.1084 14.9747C83.3605 15.4528 83.6061 15.9341 83.8486 16.4186Z" fill="url(#paint2_linear_586_527)"/>
<path d="M67.4621 43.2729C67.8865 46.5337 68.0779 49.7818 68.046 53.0011C67.9886 58.9458 67.1718 64.782 65.6724 70.3888C64.9609 73.0567 64.0931 75.6736 63.0786 78.2268C54.5603 79.6644 46.0962 79.5018 38.0182 77.9336C36.7867 77.6977 35.568 77.4299 34.3557 77.1271C33.925 76.8052 33.4943 76.4801 33.0667 76.1486C31.3854 74.8417 29.7775 73.4743 28.2461 72.0495C30.792 71.3196 33.2996 70.443 35.7594 69.423C41.1256 67.1981 46.2557 64.2912 51.0126 60.718C53.5872 58.7864 56.0502 56.6572 58.3823 54.3367C60.0573 52.6664 61.6684 50.8974 63.1998 49.0295C64.7312 47.1617 66.1509 45.2396 67.4621 43.2729Z" fill="url(#paint3_linear_586_527)"/>
<path d="M51.2176 54.4645C53.6327 54.541 56.0255 54.4995 58.3832 54.337C56.051 56.6575 53.5881 58.7867 51.0134 60.7183C46.2566 64.2915 41.1265 67.1985 35.7603 69.4233C33.3005 70.4433 30.7929 71.3199 28.2469 72.0498C23.0977 67.2686 18.8098 61.8594 15.4121 56.0327C14.2316 54.015 13.1597 51.9464 12.1962 49.8363C12.177 49.3008 12.1643 48.7621 12.1579 48.2234C12.1292 45.8965 12.2121 43.592 12.4035 41.3193C15.2015 43.3243 18.1526 45.1316 21.2377 46.7189C25.433 48.8768 29.874 50.6268 34.516 51.9177C37.6171 52.7815 40.8074 53.4413 44.0744 53.8748C46.4193 54.1872 48.8025 54.388 51.2176 54.4645Z" fill="url(#paint4_linear_586_527)"/>
<path d="M52.879 0.321935C55.0644 0.790494 57.2019 1.35468 59.2884 2.0113C56.9658 3.97478 54.7677 6.09764 52.7067 8.36712C49.159 12.2654 46.0229 16.6004 43.3908 21.3147C41.9169 23.9507 40.6024 26.711 39.4603 29.5798C38.7169 31.4381 38.0469 33.3474 37.4567 35.2981C36.7548 37.6122 36.1774 39.9327 35.7275 42.2564C34.3748 39.904 33.1689 37.5007 32.116 35.0559C29.9753 30.0993 28.4439 24.9771 27.5059 19.791C26.9413 16.6832 26.5903 13.55 26.4531 10.4167C32.6456 6.26658 39.3103 3.22254 46.1856 1.25587C47.8733 0.771369 49.5769 0.35381 51.287 0C51.8166 0.0988118 52.3494 0.207186 52.879 0.321935Z" fill="url(#paint5_linear_586_527)"/>
<path d="M39.6035 48.271C41.0136 50.2345 42.5035 52.1023 44.0732 53.8746C40.8062 53.4411 37.6159 52.7813 34.5148 51.9174C29.8728 50.6265 25.4318 48.8766 21.2365 46.7187C18.1514 45.1313 15.2003 43.324 12.4023 41.3191C13.0149 34.0899 14.7217 27.1635 17.3602 20.7121C18.0812 18.943 18.8756 17.209 19.7338 15.5133C20.1422 15.1595 20.5537 14.8152 20.9717 14.4742C22.7519 13.0175 24.58 11.666 26.4527 10.4165C26.5899 13.5498 26.9409 16.6831 27.5056 19.7909C28.4435 24.9769 29.9749 30.0992 32.1157 35.0557C33.1685 37.5005 34.3744 39.9038 35.7272 42.2562C36.9044 44.3026 38.1965 46.3107 39.6035 48.271Z" fill="url(#paint6_linear_586_527)"/>
<path d="M299.675 55.9052C298.606 55.9052 297.642 55.6725 296.787 55.2071C295.929 54.7417 295.253 54.0724 294.755 53.199C294.257 52.3256 294.012 51.2738 294.012 50.0434C294.012 48.813 294.261 47.7803 294.755 46.9101C295.266 46.0367 295.929 45.3706 296.743 44.902C297.556 44.4207 298.405 44.1816 299.292 44.1816C300.361 44.1816 301.241 44.4207 301.933 44.902C302.642 45.3674 303.168 46.0081 303.513 46.8177C303.873 47.6146 304.055 48.523 304.055 49.5462C304.055 49.833 304.039 50.1167 304.01 50.4036C303.982 50.6745 303.95 50.8785 303.921 51.0124H297.218C297.368 51.8252 297.706 52.4244 298.233 52.8165C298.759 53.1926 299.391 53.3807 300.128 53.3807C300.925 53.3807 301.729 53.1321 302.543 52.638L303.65 54.6429C303.079 55.035 302.437 55.341 301.732 55.5673C301.024 55.7936 300.341 55.9052 299.678 55.9052H299.675ZM297.193 48.8258H301.232C301.232 48.2106 301.082 47.707 300.782 47.3149C300.495 46.9101 300.022 46.7061 299.359 46.7061C298.848 46.7061 298.389 46.8878 297.981 47.248C297.575 47.5922 297.311 48.1214 297.189 48.8258H297.193ZM306.91 55.9052C306.339 55.9052 305.858 55.7107 305.465 55.3187C305.089 54.9139 304.9 54.4166 304.9 53.8301C304.9 53.2436 305.089 52.7336 305.465 52.3416C305.858 51.9368 306.336 51.7328 306.91 51.7328C307.485 51.7328 307.957 51.9368 308.333 52.3416C308.726 52.7336 308.92 53.2277 308.92 53.8301C308.92 54.4326 308.726 54.9107 308.333 55.3187C307.957 55.7107 307.485 55.9052 306.91 55.9052ZM311.505 55.6342L307.06 40.9336H310.583L312.344 47.7867C312.57 48.5835 312.765 49.3645 312.931 50.1327C313.112 50.9008 313.313 51.6881 313.54 52.5009H313.629C313.84 51.6881 314.035 50.9008 314.216 50.1327C314.398 49.3677 314.593 48.5835 314.803 47.7867L316.542 40.9336H319.927L315.505 55.6342H311.511H311.505ZM320.071 55.9052C319.5 55.9052 319.018 55.7107 318.625 55.3187C318.249 54.9139 318.061 54.4166 318.061 53.8301C318.061 53.2436 318.249 52.7336 318.625 52.3416C319.018 51.9368 319.496 51.7328 320.071 51.7328C320.645 51.7328 321.117 51.9368 321.494 52.3416C321.886 52.7336 322.081 53.2277 322.081 53.8301C322.081 54.4326 321.886 54.9107 321.494 55.3187C321.117 55.7107 320.645 55.9052 320.071 55.9052Z" fill="white"/>
<path d="M120.091 55.9051V30.3192H111.41V24.3108H135.954V30.3192H127.273V55.9051H120.094H120.091ZM150.243 39.9135L149.468 42.8205H156.209L155.482 39.9135C155.061 38.3293 154.624 36.6495 154.174 34.8741C153.753 33.0987 153.332 31.3838 152.914 29.7359H152.719C152.33 31.4157 151.928 33.1433 151.507 34.9219C151.118 36.6655 150.7 38.3293 150.247 39.9135H150.243ZM138.796 55.9051L148.69 24.3076H157.275L167.168 55.9051H159.601L157.661 48.3922H148.01L146.07 55.9051H138.793H138.796ZM174.509 55.9051V24.3076H181.64V49.8935H194.152V55.9019H174.509V55.9051ZM210.631 39.9135L209.855 42.8205H216.597L215.869 39.9135C215.448 38.3293 215.011 36.6495 214.561 34.8741C214.14 33.0987 213.719 31.3838 213.301 29.7359H213.106C212.717 31.4157 212.315 33.1433 211.894 34.9219C211.505 36.6655 211.087 38.3293 210.634 39.9135H210.631ZM199.184 55.9051L209.08 24.3076H217.666L227.562 55.9051H219.994L218.055 48.3922H208.401L206.461 55.9051H199.187H199.184ZM234.894 55.9051V24.3076H243.638L252.897 43.1711L252.89 24.3076H259.68V55.9051H252.354L241.756 33.2262L241.683 55.9051H234.894ZM277.191 55.9051V30.3192H268.51V24.3108H293.054V30.3192H284.373V55.9051H277.195H277.191Z" fill="white"/>
<defs>
<linearGradient id="paint0_linear_586_527" x1="54.7103" y1="42.5815" x2="108.79" y2="27.5336" gradientUnits="userSpaceOnUse">
<stop stop-color="#5E1004"/>
<stop offset="0.47" stop-color="#A1221F"/>
<stop offset="1" stop-color="#A4221F"/>
</linearGradient>
<linearGradient id="paint1_linear_586_527" x1="62.9633" y1="33.0731" x2="79.2246" y2="73.9754" gradientUnits="userSpaceOnUse">
<stop stop-color="#6D345B"/>
<stop offset="0.47" stop-color="#B85A9D"/>
<stop offset="1" stop-color="#B85A9D"/>
</linearGradient>
<linearGradient id="paint2_linear_586_527" x1="86.704" y1="-0.908498" x2="44.447" y2="31.3635" gradientUnits="userSpaceOnUse">
<stop stop-color="#E2000E"/>
<stop offset="0.52" stop-color="#E0000E"/>
<stop offset="1" stop-color="#7E0D00"/>
</linearGradient>
<linearGradient id="paint3_linear_586_527" x1="65.6149" y1="32.9455" x2="38.7186" y2="89.9214" gradientUnits="userSpaceOnUse">
<stop stop-color="#003F6B"/>
<stop offset="0.48" stop-color="#006DB7"/>
<stop offset="1" stop-color="#016EB8"/>
</linearGradient>
<linearGradient id="paint4_linear_586_527" x1="2.40173" y1="59.3445" x2="54.3964" y2="51.6107" gradientUnits="userSpaceOnUse">
<stop stop-color="#62B32C"/>
<stop offset="0.52" stop-color="#61B12C"/>
<stop offset="1" stop-color="#356A14"/>
</linearGradient>
<linearGradient id="paint5_linear_586_527" x1="47.0725" y1="-6.0562" x2="28.5188" y2="48.2018" gradientUnits="userSpaceOnUse">
<stop stop-color="#F07C00"/>
<stop offset="0.51" stop-color="#EE7C00"/>
<stop offset="1" stop-color="#8A4800"/>
</linearGradient>
<linearGradient id="paint6_linear_586_527" x1="8.25167" y1="13.4414" x2="44.238" y2="53.5309" gradientUnits="userSpaceOnUse">
<stop stop-color="#FDCB01"/>
<stop offset="0.49" stop-color="#FDCB01"/>
<stop offset="1" stop-color="#8D7500"/>
</linearGradient>
</defs>
</svg>
