<svg width="165" height="40" viewBox="0 0 165 40" fill="none" xmlns="http://www.w3.org/2000/svg">
<path d="M44.9878 21.5437C45.0413 22.4548 45.0586 23.3643 45.0397 24.2722C44.9342 24.5161 44.824 24.76 44.7106 25.0024C44.4727 25.5122 44.2239 26.0142 43.964 26.5083C43.3009 25.4131 42.5764 24.354 41.7905 23.3344C40.0439 21.0622 38.0011 18.9882 35.6874 17.1802C34.4369 16.1998 33.106 15.2982 31.6995 14.4862C30.6884 13.8993 29.6394 13.358 28.5527 12.867C27.466 12.3761 26.3666 11.9449 25.2578 11.572C26.7604 10.952 28.2881 10.4469 29.8284 10.0519C32.6745 9.31864 35.563 8.96144 38.4311 8.95987C39.5887 8.9583 40.7416 9.01495 41.8866 9.12982C43.7309 13.1534 44.7421 17.358 44.9878 21.5437Z" fill="url(#paint0_linear_586_844)"/>
<path d="M41.7876 23.3344C42.5735 24.3541 43.298 25.4131 43.9611 26.5083C41.9514 30.332 39.3148 33.6365 36.2389 36.3541C35.6183 36.9032 34.9789 37.4288 34.3237 37.9292C34.067 37.9969 33.8102 38.0614 33.5504 38.1243C32.7471 38.3179 31.9423 38.4831 31.1406 38.6184C31.6415 37.358 32.0699 36.0661 32.4211 34.749C33.1613 31.9811 33.5645 29.0999 33.5929 26.1652C33.6086 24.5759 33.5141 22.9725 33.3047 21.3627C33.155 20.2046 32.944 19.0433 32.6731 17.882C32.4022 16.7223 32.0762 15.5893 31.6966 14.4862C33.1031 15.2982 34.4339 16.1998 35.6845 17.1802C37.9981 18.9882 40.0409 21.0622 41.7876 23.3344Z" fill="url(#paint1_linear_586_844)"/>
<path d="M41.3973 8.10543C41.5674 8.44532 41.7296 8.78678 41.8871 9.12982C40.7421 9.01495 39.5892 8.9583 38.4315 8.95987C35.5635 8.96145 32.6749 9.31865 29.8289 10.0519C28.2886 10.4469 26.7608 10.952 25.2583 11.572C24.1779 12.0157 23.1116 12.5193 22.0595 13.081C21.1712 13.5563 20.3128 14.0629 19.4844 14.6027C20.0482 13.1865 20.6971 11.8238 21.4248 10.5224C22.7241 8.19512 24.2724 6.05508 26.0237 4.13061C27.0412 3.01023 28.1264 1.96224 29.273 0.99292C32.7915 2.09756 36.0265 3.72305 38.9119 5.76711C39.6411 6.28167 40.3483 6.82455 41.0319 7.3926C41.1563 7.62864 41.2776 7.86625 41.3973 8.10543Z" fill="url(#paint2_linear_586_844)"/>
<path d="M33.3051 21.3627C33.5146 22.9725 33.6091 24.5759 33.5934 26.1652C33.565 29.0999 33.1618 31.9811 32.4216 34.749C32.0703 36.0661 31.6419 37.358 31.1411 38.6184C26.9359 39.3281 22.7574 39.2478 18.7695 38.4736C18.1616 38.3572 17.5599 38.225 16.9614 38.0755C16.7488 37.9166 16.5362 37.7561 16.3251 37.5924C15.4951 36.9473 14.7013 36.2722 13.9453 35.5688C15.2022 35.2085 16.4401 34.7758 17.6544 34.2722C20.3036 33.1739 22.8362 31.7388 25.1845 29.9748C26.4555 29.0212 27.6714 27.9701 28.8227 26.8245C29.6496 26 30.4449 25.1267 31.2009 24.2046C31.9569 23.2825 32.6578 22.3336 33.3051 21.3627Z" fill="url(#paint3_linear_586_844)"/>
<path d="M25.2854 26.8875C26.4777 26.9253 27.6589 26.9048 28.8228 26.8245C27.6715 27.9701 26.4556 29.0212 25.1846 29.9748C22.8363 31.7388 20.3037 33.1739 17.6545 34.2722C16.4402 34.7758 15.2023 35.2085 13.9454 35.5688C11.4034 33.2085 9.2866 30.5382 7.60923 27.6617C7.02648 26.6656 6.49729 25.6444 6.02164 24.6027C6.01219 24.3383 6.00589 24.0724 6.00274 23.8065C5.98856 22.6577 6.02951 21.5201 6.12401 20.3981C7.50528 21.3879 8.96215 22.2801 10.4852 23.0637C12.5563 24.129 14.7487 24.9929 17.0403 25.6302C18.5712 26.0566 20.1462 26.3824 21.759 26.5964C22.9166 26.7506 24.0931 26.8497 25.2854 26.8875Z" fill="url(#paint4_linear_586_844)"/>
<path d="M26.1082 0.15893C27.187 0.390244 28.2423 0.668765 29.2723 0.992919C28.1257 1.96223 27.0406 3.01023 26.0231 4.13061C24.2717 6.05507 22.7235 8.19512 21.4241 10.5224C20.6965 11.8238 20.0476 13.1865 19.4838 14.6027C19.1168 15.5201 18.786 16.4626 18.4947 17.4256C18.1482 18.5681 17.8631 19.7136 17.641 20.8607C16.9732 19.6994 16.3779 18.513 15.8581 17.3061C14.8013 14.8592 14.0453 12.3304 13.5822 9.77026C13.3035 8.23603 13.1302 6.68922 13.0625 5.14241C16.1196 3.09363 19.4097 1.59087 22.8038 0.619984C23.637 0.380803 24.4781 0.174666 25.3223 0C25.5837 0.0487805 25.8467 0.102282 26.1082 0.15893Z" fill="url(#paint5_linear_586_844)"/>
<path d="M19.5534 23.83C20.2495 24.7994 20.9851 25.7215 21.76 26.5964C20.1472 26.3824 18.5722 26.0566 17.0413 25.6302C14.7497 24.9929 12.5573 24.129 10.4862 23.0637C8.96314 22.2801 7.50627 21.3879 6.125 20.3981C6.4274 16.8293 7.27002 13.4099 8.57254 10.225C8.92849 9.35168 9.32066 8.49566 9.74434 7.65852C9.94593 7.48386 10.1491 7.31391 10.3554 7.14554C11.2343 6.42642 12.1368 5.75923 13.0613 5.1424C13.129 6.68921 13.3022 8.23602 13.581 9.77025C14.0441 12.3304 14.8001 14.8592 15.8569 17.306C16.3766 18.513 16.972 19.6994 17.6398 20.8607C18.221 21.871 18.8588 22.8623 19.5534 23.83Z" fill="url(#paint6_linear_586_844)"/>
<path d="M147.94 27.5987C147.413 27.5987 146.937 27.4839 146.515 27.2541C146.091 27.0244 145.757 26.6939 145.512 26.2628C145.266 25.8316 145.145 25.3123 145.145 24.705C145.145 24.0976 145.267 23.5877 145.512 23.1581C145.764 22.727 146.091 22.3981 146.493 22.1668C146.894 21.9292 147.313 21.8112 147.751 21.8112C148.279 21.8112 148.713 21.9292 149.055 22.1668C149.405 22.3965 149.665 22.7128 149.835 23.1125C150.013 23.5059 150.103 23.9544 150.103 24.4595C150.103 24.6011 150.095 24.7411 150.081 24.8828C150.066 25.0165 150.051 25.1172 150.036 25.1833H146.727C146.801 25.5846 146.968 25.8804 147.228 26.074C147.488 26.2596 147.8 26.3525 148.164 26.3525C148.558 26.3525 148.954 26.2297 149.356 25.9858L149.903 26.9756C149.621 27.1692 149.304 27.3202 148.956 27.4319C148.606 27.5437 148.269 27.5987 147.942 27.5987H147.94ZM146.715 24.1039H148.709C148.709 23.8002 148.635 23.5515 148.487 23.358C148.345 23.1581 148.112 23.0574 147.784 23.0574C147.532 23.0574 147.305 23.1471 147.104 23.3249C146.904 23.4949 146.773 23.7561 146.713 24.1039H146.715ZM151.512 27.5987C151.23 27.5987 150.992 27.5027 150.799 27.3092C150.613 27.1094 150.52 26.8639 150.52 26.5743C150.52 26.2848 150.613 26.033 150.799 25.8395C150.992 25.6396 151.229 25.5389 151.512 25.5389C151.796 25.5389 152.029 25.6396 152.215 25.8395C152.408 26.033 152.504 26.2769 152.504 26.5743C152.504 26.8718 152.408 27.1078 152.215 27.3092C152.029 27.5027 151.796 27.5987 151.512 27.5987ZM153.78 27.465L151.586 20.2077H153.325L154.194 23.5909C154.306 23.9843 154.402 24.3698 154.484 24.749C154.574 25.1282 154.673 25.5169 154.785 25.9182H154.829C154.933 25.5169 155.029 25.1282 155.119 24.749C155.209 24.3714 155.305 23.9843 155.409 23.5909L156.267 20.2077H157.938L155.755 27.465H153.783H153.78ZM158.009 27.5987C157.727 27.5987 157.489 27.5027 157.296 27.3092C157.11 27.1094 157.017 26.8639 157.017 26.5743C157.017 26.2848 157.11 26.033 157.296 25.8395C157.489 25.6396 157.726 25.5389 158.009 25.5389C158.293 25.5389 158.526 25.6396 158.712 25.8395C158.905 26.033 159.001 26.2769 159.001 26.5743C159.001 26.8718 158.905 27.1078 158.712 27.3092C158.526 27.5027 158.293 27.5987 158.009 27.5987Z" fill="#16235D"/>
<path d="M59.2856 27.5987V14.9677H55V12.0016H67.1164V14.9677H62.8309V27.5987H59.2871H59.2856ZM74.1708 19.7042L73.7881 21.1393H77.1161L76.757 19.7042C76.5491 18.9221 76.3333 18.0928 76.1112 17.2164C75.9033 16.3399 75.6954 15.4933 75.4891 14.6798H75.393C75.2009 15.509 75.0024 16.3619 74.7945 17.24C74.6024 18.1007 74.396 18.9221 74.1724 19.7042H74.1708ZM68.5197 27.5987L73.4038 12H77.6421L82.5262 27.5987H78.7903L77.8327 23.8898H73.0683L72.1107 27.5987H68.5182H68.5197ZM86.1502 27.5987V12H89.6703V24.631H95.8475V27.5972H86.1502V27.5987ZM103.982 19.7042L103.6 21.1393H106.928L106.568 19.7042C106.361 18.9221 106.145 18.0928 105.923 17.2164C105.715 16.3399 105.507 15.4933 105.301 14.6798H105.205C105.012 15.509 104.814 16.3619 104.606 17.24C104.414 18.1007 104.208 18.9221 103.984 19.7042H103.982ZM98.3312 27.5987L103.217 12H107.455L112.341 27.5987H108.605L107.647 23.8898H102.881L101.924 27.5987H98.3328H98.3312ZM115.96 27.5987V12H120.277L124.848 21.3124L124.845 12H128.196V27.5987H124.58L119.348 16.4028L119.312 27.5987H115.96ZM136.841 27.5987V14.9677H132.556V12.0016H144.672V14.9677H140.387V27.5987H136.843H136.841Z" fill="#16235D"/>
<defs>
<linearGradient id="paint0_linear_586_844" x1="27.0124" y1="21.0212" x2="53.7097" y2="13.5925" gradientUnits="userSpaceOnUse">
<stop stop-color="#5E1004"/>
<stop offset="0.47" stop-color="#A1221F"/>
<stop offset="1" stop-color="#A4221F"/>
</linearGradient>
<linearGradient id="paint1_linear_586_844" x1="31.0839" y1="16.3273" x2="39.1117" y2="36.5196" gradientUnits="userSpaceOnUse">
<stop stop-color="#6D345B"/>
<stop offset="0.47" stop-color="#B85A9D"/>
<stop offset="1" stop-color="#B85A9D"/>
</linearGradient>
<linearGradient id="paint2_linear_586_844" x1="42.8069" y1="-0.448465" x2="21.9459" y2="15.4833" gradientUnits="userSpaceOnUse">
<stop stop-color="#E2000E"/>
<stop offset="0.52" stop-color="#E0000E"/>
<stop offset="1" stop-color="#7E0D00"/>
</linearGradient>
<linearGradient id="paint3_linear_586_844" x1="32.3932" y1="16.2644" x2="19.1153" y2="44.3917" gradientUnits="userSpaceOnUse">
<stop stop-color="#003F6B"/>
<stop offset="0.48" stop-color="#006DB7"/>
<stop offset="1" stop-color="#016EB8"/>
</linearGradient>
<linearGradient id="paint4_linear_586_844" x1="1.18641" y1="29.2966" x2="26.8546" y2="25.4787" gradientUnits="userSpaceOnUse">
<stop stop-color="#62B32C"/>
<stop offset="0.52" stop-color="#61B12C"/>
<stop offset="1" stop-color="#356A14"/>
</linearGradient>
<linearGradient id="paint5_linear_586_844" x1="23.2417" y1="-2.98977" x2="14.0823" y2="23.7958" gradientUnits="userSpaceOnUse">
<stop stop-color="#F07C00"/>
<stop offset="0.51" stop-color="#EE7C00"/>
<stop offset="1" stop-color="#8A4800"/>
</linearGradient>
<linearGradient id="paint6_linear_586_844" x1="4.07593" y1="6.63571" x2="21.8413" y2="26.4267" gradientUnits="userSpaceOnUse">
<stop stop-color="#FDCB01"/>
<stop offset="0.49" stop-color="#FDCB01"/>
<stop offset="1" stop-color="#8D7500"/>
</linearGradient>
</defs>
</svg>
